<svg preserveAspectRatio="none" width="100%" height="100%" overflow="visible" style="display: block;" viewBox="0 0 32 32" fill="none" xmlns="http://www.w3.org/2000/svg">
<g id="iconoir:tiktok-solid">
<path id="Vector" fill-rule="evenodd" clip-rule="evenodd" d="M21.3333 29C23.3667 29 25.3167 28.1923 26.7545 26.7545C28.1923 25.3167 29 23.3667 29 21.3333V10.6667C29 8.63334 28.1923 6.68329 26.7545 5.24551C25.3167 3.80774 23.3667 3 21.3333 3H10.6667C8.63334 3 6.68329 3.80774 5.24551 5.24551C3.80774 6.68329 3 8.63334 3 10.6667V21.3333C3 23.3667 3.80774 25.3167 5.24551 26.7545C6.68329 28.1923 8.63334 29 10.6667 29H21.3333ZM18.2813 7.684C18.2059 7.45926 18.053 7.26863 17.8501 7.14612C17.6471 7.02362 17.4072 6.97721 17.1732 7.01517C16.9392 7.05313 16.7263 7.17299 16.5724 7.35338C16.4186 7.53376 16.3339 7.76293 16.3333 8V20C16.3333 20.5933 16.1574 21.1734 15.8277 21.6667C15.4981 22.1601 15.0296 22.5446 14.4814 22.7716C13.9332 22.9987 13.33 23.0581 12.7481 22.9424C12.1661 22.8266 11.6316 22.5409 11.212 22.1213C10.7925 21.7018 10.5067 21.1672 10.391 20.5853C10.2752 20.0033 10.3346 19.4001 10.5617 18.852C10.7888 18.3038 11.1733 17.8352 11.6666 17.5056C12.16 17.1759 12.74 17 13.3333 17C13.5986 17 13.8529 16.8946 14.0404 16.7071C14.228 16.5196 14.3333 16.2652 14.3333 16C14.3333 15.7348 14.228 15.4804 14.0404 15.2929C13.8529 15.1054 13.5986 15 13.3333 15C12.3444 15 11.3777 15.2932 10.5555 15.8427C9.73324 16.3921 9.09237 17.173 8.71394 18.0866C8.3355 19.0002 8.23648 20.0055 8.42941 20.9755C8.62233 21.9454 9.09854 22.8363 9.7978 23.5355C10.4971 24.2348 11.388 24.711 12.3579 24.9039C13.3278 25.0969 14.3331 24.9978 15.2468 24.6194C16.1604 24.241 16.9413 23.6001 17.4907 22.7779C18.0401 21.9556 18.3333 20.9889 18.3333 20V11.2773C19.356 12.2267 20.796 13 22.6667 13C22.9319 13 23.1862 12.8946 23.3738 12.7071C23.5613 12.5196 23.6667 12.2652 23.6667 12C23.6667 11.7348 23.5613 11.4804 23.3738 11.2929C23.1862 11.1054 22.9319 11 22.6667 11C21.3707 11 20.3853 10.4667 19.6547 9.77467C18.908 9.06533 18.4573 8.21067 18.2813 7.684Z" fill="var(--fill-0, #3E2723)"/>
</g>
</svg>
